<?xml version="1.0" encoding="UTF-8"?> <svg xmlns="http://www.w3.org/2000/svg" xmlns:xlink="http://www.w3.org/1999/xlink" width="906.6" height="680.879" viewBox="0 0 906.6 680.879"><defs><linearGradient id="linear-gradient" x1="0.5" y1="0.5" x2="0.5" gradientUnits="objectBoundingBox"><stop offset="0" stop-color="#ecf2fc" stop-opacity="0.643"></stop><stop offset="1" stop-color="#d4e1f8"></stop></linearGradient><radialGradient id="radial-gradient" cx="0.5" cy="0.5" r="0.5" gradientUnits="objectBoundingBox"><stop offset="0" stop-color="#B5838D"></stop><stop offset="1" stop-color="#B5838D"></stop></radialGradient><linearGradient id="linear-gradient-2" x1="0.5" x2="0.5" y2="1" gradientUnits="objectBoundingBox"><stop offset="0" stop-color="#eaefff"></stop><stop offset="1" stop-color="#f7f9fe"></stop></linearGradient><linearGradient id="linear-gradient-6" x1="0.5" x2="0.5" y2="1" gradientUnits="objectBoundingBox"><stop offset="0" stop-color="#cfddf3"></stop><stop offset="1" stop-color="#FFCDB2"></stop></linearGradient><linearGradient id="linear-gradient-9" x1="0.5" x2="0.5" y2="1" gradientUnits="objectBoundingBox"><stop offset="0" stop-color="#6D6875"></stop><stop offset="1" stop-color="#6D6875"></stop></linearGradient></defs><g id="Group_758" data-name="Group 758" transform="translate(-131.209 -149.955)"><path id="window" d="M297.383,470.725C155.8,482.575,34.26,427.625,6.005,329.327-28.433,209.516,88.753,70.677,267.748,19.221c144.32-41.487,284.756-13.5,351.8,61.695,105.21,6.83,190.342,57.365,213.306,137.259C865.594,332.067,759.6,462.493,596.12,509.489a425.954,425.954,0,0,1-117.294,16.925C406.655,526.415,342,506.428,297.383,470.725Z" transform="translate(131.209 149.955)" opacity="0.36" fill="url(#linear-gradient)"></path><g id="_04" data-name="04" transform="translate(156.212 199.024)"><g id="_04_Illustration" data-name="04_Illustration" transform="translate(0 0)"><g id="Bg" transform="translate(85.711 91.833)"><path id="Shape" d="M12.244,2H697.93a12.244,12.244,0,0,1,12.244,12.244V490.551A12.244,12.244,0,0,1,697.93,502.8H12.244A12.244,12.244,0,0,1,0,490.551V14.244A12.244,12.244,0,0,1,12.244,2Z" transform="translate(0 0.449)" fill="#afc3e5" fill-rule="evenodd"></path><path id="Shape-2" data-name="Shape" d="M82.855,190H414.678a42.855,42.855,0,0,1,42.855,42.855v37.958a42.855,42.855,0,0,1-42.855,42.855H40V232.855A42.855,42.855,0,0,1,82.855,190Z" transform="translate(8.978 42.643)" fill="#c5dcff" fill-rule="evenodd"></path><path id="Shape-3" data-name="Shape" d="M84.081,210H399.986a14.081,14.081,0,0,1,0,28.162H84.081a14.081,14.081,0,0,1,0-28.162Z" transform="translate(15.711 47.132)" fill="#5a9cff" fill-rule="evenodd"></path><path id="Shape-4" data-name="Shape" d="M84.081,248H265.3a14.081,14.081,0,0,1,0,28.162H84.081a14.081,14.081,0,0,1,0-28.162Z" transform="translate(15.711 55.661)" fill="#49a2fe" fill-rule="evenodd"></path><path id="Shape-5" data-name="Shape" d="M237.57,87H573.678a42.855,42.855,0,0,1,42.855,42.855V164.14H237.57a38.57,38.57,0,1,1,0-77.14Z" transform="translate(44.663 19.526)" fill="#e5effd" fill-rule="evenodd"></path><ellipse id="Oval" cx="23.695" cy="24.159" rx="23.695" ry="24.159" transform="translate(577.166 120.931)" fill="#c5dcff"></ellipse><circle id="Oval-2" data-name="Oval" cx="4.181" cy="4.181" r="4.181" transform="translate(586.458 135.799)" fill="#68b2ff"></circle><circle id="Oval-3" data-name="Oval" cx="4.181" cy="4.181" r="4.181" transform="translate(605.971 135.799)" fill="#68b2ff"></circle><path id="Oval-4" data-name="Oval" d="M493.02,133c5.135,0,9.8-3.488,9.8-7.347,0-4.75-20.815-4.75-20.815,0C482,129.511,486.66,133,493.02,133Z" transform="translate(108.18 27.402)" fill="#68b2ff" fill-rule="evenodd"></path><path id="Shape-6" data-name="Shape" d="M243.081,107H486.745a14.081,14.081,0,0,1,0,28.162H243.081a14.081,14.081,0,1,1,0-28.162Z" transform="translate(51.397 24.015)" fill="#c5dcff" fill-rule="evenodd"></path><path id="Shape-7" data-name="Shape" d="M12.244,0H697.93a12.244,12.244,0,0,1,12.244,12.244v45.3H0v-45.3A12.244,12.244,0,0,1,12.244,0Z" transform="translate(0 0)" fill="#afc3e5" fill-rule="evenodd"></path><circle id="Oval-5" data-name="Oval" cx="13.009" cy="13.009" r="13.009" transform="translate(24.293 15.932)" fill="#e5effd"></circle><circle id="Oval-6" data-name="Oval" cx="13.009" cy="13.009" r="13.009" transform="translate(62.39 15.932)" fill="#e5effd"></circle><circle id="Oval-7" data-name="Oval" cx="13.009" cy="13.009" r="13.009" transform="translate(100.487 15.932)" fill="#e5effd"></circle></g><path id="Shape-8" data-name="Shape" d="M18.367,486H863.23a18.367,18.367,0,1,1,0,36.733H18.367a18.367,18.367,0,1,1,0-36.733Z" transform="translate(0 109.077)" fill="#e5effd" fill-rule="evenodd"></path><path id="Shape-9" data-name="Shape" d="M83.017,375.391v16.472c-1.048-2.554-2.071-5.05-2.519-6.155-3.056-7.544-5.68-14.568-7.9-21.335-5.864,3.11-18.212,3.111-31.68-.5-17.636-4.726-30.515-13.852-28.764-20.384s17.466-8,35.1-3.27a71.234,71.234,0,0,1,20.994,9.058A174.764,174.764,0,0,1,63.309,313.8c-6.408,1.08-18.314-4.43-29.562-14.207-13.78-11.979-21.354-25.827-16.918-30.931s19.2.47,32.984,12.449a74.34,74.34,0,0,1,13.866,15.636c1.6-11.807,6.726-24.173,15.259-38.2q.3-.489.6-.98C73.876,254,67.459,243.9,63.3,231.088c-5.642-17.365-5-33.136,1.429-35.226s16.219,10.294,21.861,27.659a77.817,77.817,0,0,1,3.706,17.992q2.144-3,4.539-6.254c2.949-4.005,12.313-16.392,16.323-21.685-5.214-4.32-10.915-12.8-15.158-23.3-6.84-16.929-7.3-32.706-1.032-35.239s16.9,9.137,23.737,26.066a79.935,79.935,0,0,1,4.673,15.937,319.79,319.79,0,0,0,19.274-29.765c-6-3.146-13.421-11.575-19.319-22.667-8.571-16.121-10.68-31.763-4.709-34.938s17.76,7.321,26.331,23.442a79,79,0,0,1,6.521,16.109c1.451-3.492,2.755-7,3.938-10.562a119.522,119.522,0,0,0,5.059-21.495c-6.628-.958-16.606-7.576-25.624-17.592C122.631,86,116.8,71.333,121.826,66.808s19,2.807,31.221,16.375a83.67,83.67,0,0,1,7.982,10.34,112.85,112.85,0,0,0-8.037-32.3c-6.355-.349-15.733-10.883-22.3-25.625-7.426-16.68-8.439-32.431-2.262-35.182s17.207,8.542,24.633,25.221c5.946,13.355,7.78,26.114,5.1,32.083a119.325,119.325,0,0,1,9,35.734,81.834,81.834,0,0,1,9.327-11.506C189.178,68.811,203.4,61.972,208.268,66.67s-1.474,19.153-14.158,32.287c-9.875,10.226-20.684,16.636-27.283,16.756a124.644,124.644,0,0,1-5.6,24.871c-1.283,3.87-2.7,7.66-4.281,11.434a78.6,78.6,0,0,1,16.237-7.271c17.364-5.642,33.136-5,35.225,1.429s-10.293,16.219-27.658,21.861c-13.921,4.523-26.816,5.009-32.461,1.711a327.819,327.819,0,0,1-20.655,31.862,77.942,77.942,0,0,1,17.9-3.583c18.189-1.591,33.411,2.58,34,9.317s-13.677,13.488-31.866,15.079c-14.147,1.238-26.5-1.01-31.569-5.241-3.973,5.244-13.4,17.71-16.339,21.706-1.683,2.286-3.263,4.464-4.752,6.556a77.41,77.41,0,0,1,17.4-6.851c17.636-4.725,33.352-3.261,35.1,3.27s-11.128,15.658-28.765,20.384c-15.741,4.218-29.953,3.5-34.07-1.342q-.256.415-.508.83c-7.729,12.7-12.454,23.818-14.175,34.216a70.583,70.583,0,0,1,13.025-10.509v26.112c-5.367,1.67-10.114,2.318-13.6,1.834a168.941,168.941,0,0,0,5.24,36.241,54.891,54.891,0,0,1,8.358-13.339v25.5a14.416,14.416,0,0,1-4.65.511C79.749,366.531,81.3,370.873,83.017,375.391Zm0,36.824c-6.589,1.226-16.21.573-26.483-2.18C38.9,405.31,26.02,396.183,27.77,389.652s17.466-8,35.1-3.27a72.861,72.861,0,0,1,20.145,8.5Z" transform="translate(2.693 0)" fill="#6D6875" fill-rule="evenodd"></path><g id="Woman" transform="translate(138.159 33.06)"><path id="Shape-10" data-name="Shape" d="M265.805,34.86c26.2,12.458,44.2,38.295,44.2,67.993,0,15.135-9.3,33.607-17.142,45.3q-2.167-3.424-4.206-6.666L282.231,286.87c-2.716,61.415-54.754,109.848-118.027,109.848-58.1,0-105.2-45.761-105.2-102.21q0-3.728.28-7.447L73.065,103.707C77.461,45.248,127.56,0,187.891,0A103.555,103.555,0,0,1,265.805,34.86Z" transform="translate(12.22 0)" fill-rule="evenodd" fill="url(#radial-gradient)"></path><g id="Mask" transform="translate(213.255 282.845)"><path id="Shape-11" data-name="Shape" d="M0,0Q74.82,14.21,74.691,61.222q.129,47.346,3.673,216.726h-55.1Z" fill="url(#linear-gradient-2)"></path><path id="Shape-12" data-name="Shape" d="M77.581,241.366q.23,11.34.479,23.326c-9.657,7.436-30.9,11.517-54.856,12.522L.17,2.03Q17.92,32.8,22,38.726C47.4,79.171,73.294,86.9,62.408,129.335,51.619,168.948,58.693,205.682,77.581,241.366Z" transform="translate(0.038 0.456)" fill-rule="evenodd" opacity="0.097"></path></g><g id="Mask-2" data-name="Mask" transform="translate(71.139 282.845)"><path id="Shape-13" data-name="Shape" d="M36.748,0Q-16.6,83.743,7.362,126.117c25.1,42.422,39.293,89.571,39.182,123.668.111,35.436,184.44,39.525,164.075,0-22.153-38.185-31.184-77.429-19.591-120,10.886-42.438-.312-50.164-25.713-90.609Q161.07,33.024,142.05,0Z" transform="translate(0.066)" fill="url(#linear-gradient-2)"></path><path id="Shape-14" data-name="Shape" d="M187.525,198.872,148.659,213.79,133.74,174.924Z" transform="translate(30.098 39.26)" fill="#eef4f8" fill-rule="evenodd"></path></g><g id="Mask-3" data-name="Mask" transform="translate(0 281.621)"><path id="Shape-15" data-name="Shape" d="M108.788,0Q32.425,4.513,32.873,64.9c-.447,61-39.946,142.091-30.611,215.5q.221.213,174.611,0c33.977-.023,8.227-33.792.484-34.284q-27.17.492-108.975-20.815,11.184-23.045,22.04-74.691Q104.432,86.64,108.788,0Z" transform="translate(-0.835 0)" fill="url(#linear-gradient-2)"></path><path id="Shape-16" data-name="Shape" d="M112.094,228.457l13.555-39.363,39.362,13.555Z" transform="translate(24.136 42.44)" fill-rule="evenodd" fill="url(#linear-gradient-2)"></path></g><path id="Shape-17" data-name="Shape" d="M147.909,467.34q33.521-.022,116.322,0-56.709-38.094-68.569-45.3c-3.807-1.987-39.973,11.673-47.753,11.02C125.394,433.626,128.142,467.353,147.909,467.34Z" transform="translate(28.612 94.677)" fill-rule="evenodd" fill="url(#linear-gradient-6)"></path><g id="Mask-4" data-name="Mask" transform="translate(107.953 179.794)"><path id="Shape-18" data-name="Shape" d="M31.835,12.281Q44.933,58.941,0,102.889q15.063,41.632,63.671,41.631,49.717,0,41.631-41.631Q80.09,91.2,93.057,75.952C107.6,61.2,18.812-33.629,31.835,12.281Z" transform="translate(0 0.162)" fill="url(#linear-gradient-6)"></path><path id="Shape-19" data-name="Shape" d="M89.635,96.942C70.107,92.654,41.82,74.922,29.024,38.216A76.025,76.025,0,0,0,26.24,12.281C13.217-33.629,102.007,61.2,87.462,75.952Q77.675,87.463,89.635,96.942Z" transform="translate(5.595 0.162)" opacity="0.1" fill="url(#linear-gradient-6)"></path></g><path id="Shape-20" data-name="Shape" d="M228.306,122.74l31.2,14.955-2.63,13.591L224,125.451h0a3.005,3.005,0,0,1,4.306-2.711Z" transform="translate(49.253 27.481)" fill-rule="evenodd" fill="url(#linear-gradient-9)"></path><g id="Shape-21" data-name="Shape" transform="translate(110.402 86.485)"><path id="Path_1629" data-name="Path 1629" d="M120.3,176.384C106.4,176.27,91,148.566,91,129.856c0-19.647,18.964-22.525,25.713-13.469q74.524,1.183,122.444-36.733a45.2,45.2,0,0,0,9.568-9.021q2.6,4.873,5.125,9.021,8.495,15.778,31.835,52.651C274.874,202.4,219.073,241.28,191.4,241.28,172.066,241.28,134.027,222.919,120.3,176.384Z" transform="translate(-91 -70.632)" fill="url(#linear-gradient-6)"></path><path id="Path_1630" data-name="Path 1630" d="M120.3,176.384C106.4,176.27,91,148.566,91,129.856c0-19.647,18.964-22.525,25.713-13.469q74.524,1.183,122.444-36.733a45.2,45.2,0,0,0,9.568-9.021q2.6,4.873,5.125,9.021,8.495,15.778,31.835,52.651C274.874,202.4,219.073,241.28,191.4,241.28,172.066,241.28,134.027,222.919,120.3,176.384Z" transform="translate(-91 -70.632)" fill="url(#linear-gradient-6)"></path></g><circle id="Oval-8" data-name="Oval" cx="27.876" cy="27.876" r="27.876" transform="translate(170.693 131.386)" fill="#eef4f8" opacity="0.5"></circle><path id="Oval-9" data-name="Oval" d="M168.835,162.773A26.938,26.938,0,1,0,141.9,135.835,26.938,26.938,0,0,0,168.835,162.773Zm0,4.9a31.835,31.835,0,1,1,31.835-31.835A31.836,31.836,0,0,1,168.835,167.671Z" transform="translate(29.726 23.342)" fill="url(#linear-gradient-9)"></path><ellipse id="Oval-10" data-name="Oval" cx="28.341" cy="27.876" rx="28.341" ry="27.876" transform="translate(249.675 139.749)" fill="#eef4f8" opacity="0.5"></ellipse><path id="Oval-11" data-name="Oval" d="M233.835,169.773A26.938,26.938,0,1,0,206.9,142.835,26.938,26.938,0,0,0,233.835,169.773Zm0,4.9a31.835,31.835,0,1,1,31.835-31.835A31.836,31.836,0,0,1,233.835,174.671Z" transform="translate(44.315 24.913)" fill="url(#linear-gradient-9)"></path><path id="Shape-22" data-name="Shape" d="M189.2,127.231l18.085,1.582a3.508,3.508,0,0,1,3.2,3.495h0a2.945,2.945,0,0,1-2.945,2.945q-.129,0-.257-.011L189.2,133.659a3.508,3.508,0,0,1-3.2-3.495h0a2.945,2.945,0,0,1,2.945-2.945Q189.073,127.22,189.2,127.231Z" transform="translate(40.724 28.553)" fill-rule="evenodd" fill="url(#linear-gradient-9)"></path><path id="Shape-23" data-name="Shape" d="M116.306,106.74l31.2,14.955-2.63,13.591L112,109.451h0a3.005,3.005,0,0,1,4.306-2.711Z" transform="translate(24.115 23.89)" fill-rule="evenodd" fill="url(#linear-gradient-9)"></path></g><g id="Macbook" transform="translate(311.008 364.883)"><path id="Shape-24" data-name="Shape" d="M138.627,0H494.605a6.125,6.125,0,0,1,5.989,7.4L455.253,220.5a12.244,12.244,0,0,1-11.976,9.7H87.3a6.123,6.123,0,0,1-5.988-7.4L126.65,9.7A12.245,12.245,0,0,1,138.627,0Z" transform="translate(18.219 0)" fill="#6D6875" fill-rule="evenodd"></path><path id="Shape-25" data-name="Shape" d="M6.122,177H232.643a6.123,6.123,0,0,1,6.122,6.122v1.224a6.123,6.123,0,0,1-6.122,6.122H6.122A6.123,6.123,0,0,1,0,184.347v-1.224A6.123,6.123,0,0,1,6.122,177Z" transform="translate(0 39.726)" fill="#6D6875" fill-rule="evenodd"></path><path id="Shape-26" data-name="Shape" d="M148.627,0H504.605a6.125,6.125,0,0,1,5.989,7.4L465.253,220.5a12.244,12.244,0,0,1-11.976,9.7H97.3a6.123,6.123,0,0,1-5.988-7.4L136.65,9.7A12.245,12.245,0,0,1,148.627,0Z" transform="translate(20.463 0)" fill="#6D6875" fill-rule="evenodd"></path><circle id="Oval-12" data-name="Oval" cx="17.655" cy="17.655" r="17.655" transform="translate(310.055 97.836)" fill="#eef4f8"></circle></g></g></g></g></svg> 